<svg xmlns="http://www.w3.org/2000/svg" width="213.861" height="55.069" viewBox="0 0 213.861 55.069">
  <g id="Laag_2" data-name="Laag 2" transform="translate(-18.255 -17.935)">
    <g id="Layer_1" data-name="Layer 1" transform="translate(18.255 17.935)">
      <path id="Path_5" data-name="Path 5" d="M187.336,54.856H106.869L104.28,43.58h83.056Z" transform="translate(26.036 -0.218)" fill="#fff"/>
      <path id="Path_6" data-name="Path 6" d="M23.047,21.056h-.072l-2.129,7.507h-3.8L13.67,13.75h4.271l1.338,7.939h.086L21.35,13.75h3.38l1.956,7.939h.072l1.323-7.939h4.228L28.958,28.563H25.1Z" transform="translate(-13.67 -13.29)" fill="#fff"/>
      <path id="Path_7" data-name="Path 7" d="M27.346,21.255a7.306,7.306,0,0,1,7.565-7.723,7.306,7.306,0,0,1,7.579,7.723,7.306,7.306,0,0,1-7.579,7.723,7.191,7.191,0,0,1-7.565-7.723m11.06,0c-.043-2.56-1.266-4.171-3.495-4.171s-3.48,1.611-3.48,4.156,1.266,4.128,3.48,4.128,3.452-1.568,3.452-4.128" transform="translate(-7.686 -13.388)" fill="#fff"/>
      <path id="Path_8" data-name="Path 8" d="M43.758,23.115h-.244v5.451H39.53V13.752h6.026a4.9,4.9,0,0,1,5.149,4.8,4.43,4.43,0,0,1-2.876,4.128l3.265,5.882H46.62Zm2.948-4.444a1.438,1.438,0,0,0-1.539-1.438H43.514v2.876h1.654a1.438,1.438,0,0,0,1.539-1.438" transform="translate(-2.338 -13.292)" fill="#fff"/>
      <path id="Path_9" data-name="Path 9" d="M49.08,13.75h3.984v11.3h4.3v3.509H49.08Z" transform="translate(1.847 -13.29)" fill="#fff"/>
      <path id="Path_10" data-name="Path 10" d="M56.32,28.568V13.754h5.293a7.191,7.191,0,0,1,7.622,7.407,7.191,7.191,0,0,1-7.622,7.407Zm8.787-7.421c0-2.517-1.438-3.926-3.509-3.926H60.333v7.824h1.28c2.114,0,3.509-1.438,3.509-3.9" transform="translate(5.019 -13.294)" fill="#fff"/>
      <path id="Path_11" data-name="Path 11" d="M69.295,17.881l-1.007,1.97-1.668-.489.877-1.812a.6.6,0,0,1,.115-.259,1.942,1.942,0,0,1,.518-3.811,1.913,1.913,0,0,1,1.985,2,5.264,5.264,0,0,1-.82,2.4" transform="translate(9.346 -13.409)" fill="#fff"/>
      <path id="Path_12" data-name="Path 12" d="M75.062,18.609l2.876,1.726a4.6,4.6,0,0,1,2.3,4.113c0,2.718-2.114,4.5-5.034,4.5A4.832,4.832,0,0,1,70,24.707l3.452-1.366c.2.69.59,2.057,1.755,2.057a.863.863,0,0,0,.935-.892c0-.417-.144-.777-.849-1.208L72.876,21.86a4.171,4.171,0,0,1-2.445-3.941,4.444,4.444,0,0,1,4.7-4.315,4.746,4.746,0,0,1,4.991,3.639l-3.38,1.251c-.575-1.266-1.151-1.438-1.64-1.438a.7.7,0,0,0-.748.69c0,.5.374.748.7.949" transform="translate(11.014 -13.36)" fill="#fff"/>
      <path id="Path_13" data-name="Path 13" d="M17.059,30.932H13.78V27.48H24.351v3.452H21.043V42.279H17.059Z" transform="translate(-13.622 -7.273)" fill="#fff"/>
      <path id="Path_14" data-name="Path 14" d="M21.546,34.971A7.277,7.277,0,0,1,29.1,27.262a7.292,7.292,0,0,1,7.579,7.709A7.306,7.306,0,0,1,29.1,42.708a7.191,7.191,0,0,1-7.551-7.723m11.045,0c0-2.546-1.266-4.142-3.495-4.142s-3.466,1.6-3.466,4.142S26.9,39.113,29.1,39.113s3.495-1.568,3.495-4.128" transform="translate(-10.228 -7.372)" fill="#fff"/>
      <path id="Path_15" data-name="Path 15" d="M45.091,36.771a5.508,5.508,0,0,1-5.9,5.839,5.508,5.508,0,0,1-5.911-5.825V27.48h4v9.65a1.913,1.913,0,0,0,3.826,0V27.48h3.984Z" transform="translate(-5.08 -7.273)" fill="#fff"/>
      <path id="Path_16" data-name="Path 16" d="M49.74,33.849h7.594a7.421,7.421,0,0,1,.173,1.668,6.774,6.774,0,0,1-7.191,7.191,7.191,7.191,0,0,1-7.579-7.723,7.292,7.292,0,0,1,7.579-7.723A6.961,6.961,0,0,1,56.4,30.354l-2.718,2.287a3.926,3.926,0,0,0-3.365-1.87c-2.2,0-3.524,1.625-3.524,4.185s1.338,4.185,3.524,4.185A3.107,3.107,0,0,0,53.422,37.3H49.74Z" transform="translate(-0.942 -7.372)" fill="#fff"/>
      <path id="Path_17" data-name="Path 17" d="M54.24,27.48h3.984v5.638h3.984V27.48h4v14.8h-4V36.6H58.224v5.681H54.24Z" transform="translate(4.108 -7.273)" fill="#fff"/>
      <path id="Path_18" data-name="Path 18" d="M64.31,27.48h8.96v3.452H68.294v2.186h4.588v3.423H68.294V38.77h5.077v3.509H64.31Z" transform="translate(8.521 -7.273)" fill="#fff"/>
      <path id="Path_19" data-name="Path 19" d="M76.675,32.343l2.876,1.74a4.573,4.573,0,0,1,2.316,4.1c0,2.733-2.114,4.5-5.034,4.5a4.832,4.832,0,0,1-5.163-4.315L75.136,37c.187.69.59,2.057,1.755,2.057a.863.863,0,0,0,.92-.892c0-.417-.129-.762-.849-1.194l-2.4-1.438a4.185,4.185,0,0,1-2.416-3.926,4.43,4.43,0,0,1,4.689-4.315,4.732,4.732,0,0,1,4.991,3.624l-3.409,1.294c-.575-1.266-1.151-1.438-1.64-1.438a.719.719,0,0,0-.748.69c0,.518.374.748.7.949" transform="translate(11.746 -7.361)" fill="#fff"/>
      <path id="Path_20" data-name="Path 20" d="M82.669,30.932H79.39V27.48H89.961v3.452H86.667V42.279h-4Z" transform="translate(15.129 -7.273)" fill="#fff"/>
      <path id="Path_21" data-name="Path 21" d="M14.4,41.2h8.96v3.452H18.384V47.5h4.645v3.409H18.384V56H14.4Z" transform="translate(-13.35 -1.261)" fill="#fff"/>
      <rect id="Rectangle_3" data-name="Rectangle 3" width="3.984" height="14.799" transform="translate(11.951 39.939)" fill="#fff"/>
      <path id="Path_22" data-name="Path 22" d="M30.728,50.565H30.5V56h-4V41.2h6.026a4.876,4.876,0,0,1,5.149,4.8A4.387,4.387,0,0,1,34.8,50.119L38.049,56H33.59Zm2.963-4.444a1.438,1.438,0,0,0-1.539-1.438H30.5v2.876h1.654a1.438,1.438,0,0,0,1.539-1.438" transform="translate(-8.048 -1.263)" fill="#fff"/>
      <path id="Path_23" data-name="Path 23" d="M35.71,41.2h8.96v3.452H39.694v2.2h4.588v3.409H39.694V52.49h5.077V56H35.71Z" transform="translate(-4.012 -1.261)" fill="#fff"/>
      <path id="Path_24" data-name="Path 24" d="M52.087,48.506h-.072L49.872,56H46.09L42.71,41.2h4.271l1.338,7.939h.072l2-7.939h3.38l1.956,7.939H55.8L57.121,41.2h4.228L58,56H54.144Z" transform="translate(-0.945 -1.261)" fill="#fff"/>
      <path id="Path_25" data-name="Path 25" d="M56,48.655a7.565,7.565,0,1,1,7.565,7.565A7.565,7.565,0,0,1,56,48.655m11.045,0c0-2.546-1.266-4.142-3.495-4.142s-3.466,1.6-3.466,4.142,1.266,4.128,3.466,4.128,3.495-1.553,3.495-4.128" transform="translate(4.879 -1.309)" fill="#fff"/>
      <path id="Path_26" data-name="Path 26" d="M72.108,50.565h-.244V56H67.88V41.2h6.026a4.89,4.89,0,0,1,5.149,4.8,4.315,4.315,0,0,1-2.876,4.113L79.443,56H74.97Zm2.963-4.444a1.438,1.438,0,0,0-1.539-1.438H71.864v2.876h1.668a1.438,1.438,0,0,0,1.539-1.438" transform="translate(10.085 -1.263)" fill="#fff"/>
      <path id="Path_27" data-name="Path 27" d="M77.09,41.2h3.984v5.652h.518c1.855,0,2.589-1.294,2.589-2.876V41.19h3.984v2.488a6.256,6.256,0,0,1-2.876,5.753l3.782,6.5H84.353l-2.977-5.537h-.3v5.537H77.09Z" transform="translate(14.121 -1.265)" fill="#fff"/>
      <path id="Path_28" data-name="Path 28" d="M90.9,46.067l2.876,1.74a4.573,4.573,0,0,1,2.33,4.1c0,2.733-2.114,4.5-5.034,4.5a4.818,4.818,0,0,1-5.163-4.315l3.466-1.352c.187.69.59,2.042,1.755,2.042a.849.849,0,0,0,.92-.877c0-.417-.129-.777-.849-1.208L88.8,49.26a4.2,4.2,0,0,1-2.5-3.941A4.444,4.444,0,0,1,91,41a4.775,4.775,0,0,1,5,3.639l-3.423,1.28c-.575-1.266-1.136-1.438-1.64-1.438a.719.719,0,0,0-.748.69c0,.518.374.748.7.949" transform="translate(17.986 -1.353)" fill="#fff"/>
      <path id="Path_29" data-name="Path 29" d="M119.944,30.861h-.187l-5.091,17.891h-9.032L97.58,13.43h10.168l3.207,18.927h.187L115.9,13.43h8.054l4.66,18.927h.187l3.15-18.927h10.082l-8,35.322h-9.19Z" transform="translate(23.1 -13.43)" fill="#fff"/>
      <path id="Path_30" data-name="Path 30" d="M147.5,13.43h21.386v8.241H157.021v6.788h11.06V36.6h-11.06V48.752H147.5Z" transform="translate(44.975 -13.43)" fill="#fff"/>
      <path id="Path_31" data-name="Path 31" d="M136.86,21.671h-8.37l1.841-8.241h23.9v8.241h-7.867V48.752H136.86Z" transform="translate(36.645 -13.43)" fill="#fff"/>
    </g>
  </g>
</svg>
