<svg xmlns="http://www.w3.org/2000/svg" width="31.069" height="37.224" viewBox="0 0 31.069 37.224">
  <path id="Icon_zocial-youtube" data-name="Icon zocial-youtube" d="M2.681,25.811q0-1.942.216-5.832a4.705,4.705,0,0,1,1.368-3.114A4.669,4.669,0,0,1,7.4,15.551q3.6-.181,10.836-.18t10.837.18a4.586,4.586,0,0,1,4.5,4.428q.177,3.24.18,5.832t-.18,5.833a4.584,4.584,0,0,1-4.5,4.428q-3.6.179-10.837.18T7.4,36.072a4.668,4.668,0,0,1-3.131-1.314A4.7,4.7,0,0,1,2.9,31.643Q2.68,27.757,2.681,25.811Zm2.412-5.075h2.2V32.473H9.413V20.736h2.2v-1.98H5.093ZM7.433-.972h2.16L10.961,4.5H11.1L12.4-.972h2.16L12.9,4.356q-.829,2.627-.828,2.7v5.688H9.953V7.308a5.987,5.987,0,0,0-.2-.918c-.083-.276-.192-.594-.324-.954s-.234-.66-.306-.9Zm4.176,31.86q0,1.728,1.3,1.728a2.909,2.909,0,0,0,2.2-1.26v1.116h1.873V22.356H15.1v7.7q-.756.756-1.116.757c-.335,0-.5-.228-.5-.684V22.357H11.609v8.531Zm2.844-20.7V4.932a2.335,2.335,0,0,1,.792-1.89,3.023,3.023,0,0,1,2.016-.666,2.638,2.638,0,0,1,1.925.72A2.542,2.542,0,0,1,19.924,5v5.22a2.786,2.786,0,0,1-.72,2.034A2.689,2.689,0,0,1,17.188,13a2.629,2.629,0,0,1-2-.774A2.831,2.831,0,0,1,14.453,10.188Zm1.944.252q0,.827.792.828.827,0,.828-.9V4.86a.681.681,0,0,0-.253-.54.857.857,0,0,0-.576-.216.838.838,0,0,0-.558.2.649.649,0,0,0-.234.522V10.44Zm2.412,22.032h1.908v-.757a2.216,2.216,0,0,0,1.8.9q1.691,0,1.692-2.232V24.768q0-2.555-1.837-2.555a2.124,2.124,0,0,0-1.656.971V18.756H18.809V32.472Zm1.908-1.908V24.228a1.143,1.143,0,0,1,.792-.4q.791,0,.792,1.008v5.328q0,.864-.684.864A1.157,1.157,0,0,1,20.717,30.564Zm.828-19.4V2.628h1.872v7.74q0,.683.5.684.467,0,1.116-.756V2.628h1.872V12.744H25.037V11.628a2.911,2.911,0,0,1-2.2,1.26Q21.545,12.888,21.545,11.16Zm4.1,18.468a3.564,3.564,0,0,0,.684,2.25,2.437,2.437,0,0,0,2.052.882q2.808,0,2.807-3.132v-.756H29.25c0,.048,0,.21.018.486a2.863,2.863,0,0,1-.018.594c-.024.119-.055.282-.09.487a.633.633,0,0,1-.235.431.863.863,0,0,1-.5.126q-.829,0-.828-1.44V27.649h3.6V25.056a3.25,3.25,0,0,0-.666-2.16,2.508,2.508,0,0,0-2.034-.791,2.7,2.7,0,0,0-2.07.827,2.99,2.99,0,0,0-.774,2.124v4.572Zm1.944-3.564v-1.08q0-1.115.828-1.116t.828,1.116v1.08Z" transform="translate(-2.681 0.972)" fill="#fff"/>
</svg>
