<svg xmlns="http://www.w3.org/2000/svg" width="233.812" height="502.491" viewBox="0 0 233.812 502.491">
  <g id="Group_12" data-name="Group 12" transform="translate(-793.757 -3842.209)">
    <path id="Path_54" data-name="Path 54" d="M1027.034,4110.176a88.054,88.054,0,0,0-20.925-16.72s-21.628-11.022-22.335-12.667-2.821-7.053-6.111-13.637-11.284-16.69-11.756-19.984-2.822-7.285-.47-9.874a39.27,39.27,0,0,0,5.171-6.583c1.411-2.35,1.646-9.4,2.586-16.458s3.056-9.637.942-17.866,0-6.349-2.117-8.23a10.53,10.53,0,0,1-3.293-4.936c-.468-1.412-1.645-4.233-1.645-4.233s-2.585-5.408-4.7-7.758a51.646,51.646,0,0,0-5.173-5.173c-.94-.706-.7-1.409-3.056-4.231s-4.7-4.7-7.523-7.993-1.882-3.057-4.466-4.468-4-1.882-4.233-2.822-4.7-5.876-5.171-7.523.7-3.527-1.412-7.289-2.82-5.4-4.233-7.287-2.583-3.526-4-3.526,1.882-1.412-7.288-2.117-7.523-.706-13.164-.706a83.664,83.664,0,0,1-9.406-.471l-.94-2.584s-7.054-5.408-11.051-6.818a24.942,24.942,0,0,1-.468-9.169s.233-6.111.7-9.639c0,0,15.989-15.4,14.812-29.622,0,0,.7-11.52-16.1-9.287,0,0-9.169,1.41-12.461,2.352l-14.459-10.581s-8.229-1.647-23.981,11.166c0,0-8.109,11.051-3.408,21.864,0,0-13.87,14.459-11.637,29.154,0,0,4.35,14.222,25.038,9.051,0,0,.352,1.175-.822,4.584s-2,4.468-2,5.995a42.284,42.284,0,0,1-.353,5.055,120.847,120.847,0,0,0-16.692,10.108s-14.107,8.819-19.278,11.64c0,0-3.645.35-3.526,5.525s.583,7.288,0,10.578-.7,20.22-.7,23.393-.007,13.047.7,14.577.238,6.7-.7,13.4-1.645,13.047-1.645,13.869-1.763,7.995,1.175,11.756c0,0-.117,6.466-.352,8.581s-1.285,10.578-1.347,12.46,1.347,16.81,2.406,20.1a23.135,23.135,0,0,1,1.526,7.173c.235,3.171-.585,17.043-.585,21.511s.115,6.7.115,7.876a19.017,19.017,0,0,0,.353,2.937,4.656,4.656,0,0,0,.47,4.82,35.691,35.691,0,0,0,4.231,4.936s5.643,5.408,9.051,5.526c0,0,1.765,3.408,4.351,3.643s2.938-3.056,2.821-5.406.235-9.053.822-10.345,4.7-2.468,5.29-5.525c0,0-.587-13.049.472-15.987s.468-6.935.7-8.816.588-6.819.706-8.228-1.41-27.154-1.177-29.035.942-7.876,1.058-9.522-.235-10.343,1.763-6.465a25.29,25.29,0,0,1,2.588,8.934,22.635,22.635,0,0,1,0,5.642c-.237,1.53-2.235,8.815-2.588,12.342a42.781,42.781,0,0,0-.352,9.641c.352,4.113.47,16.81.942,21.4s-.12,11.519.117,13.165.94,6,1.645,11.754,7.288,26.566,11.991,37.617c0,0,4.7,18.574,7.288,28.917,0,0,2.586,7.522,4.938,8.463s2.116,0,2.116,0l-.235-3.057s1.88-3.761,3.29-3.057.942,4.6,1.646,6.531,1.88,3.814,1.88,5.46-1.646,1.88-1.88,3.057a18.736,18.736,0,0,0-.94,5.406c0,2.821.94,6.348,4.7,13.168s2.822,7.992,4,12.93,1.646,11.989,2.821,13.869,4,11.522,6.113,15.752a65.72,65.72,0,0,1,4.468,11.756,2.784,2.784,0,0,1-1.178,3.056s2.823,5.173,2.823,7.053,1.88,1.881,4.231,1.176a13.886,13.886,0,0,1,3.526-.707s5.643,12.227,5.878,18.81c0,0,0,3.29-2.821,8.463s-6.115,11.05-7.523,12.458-5.173,1.646-5.173,4.938,1.177,4.7,1.177,4.7,15.752,1.879,21.628,0,7.993-2.35,8.7-3.762,7.759-1.174,8.7-2.82,1.175-7.288,0-9.639-3.058-4.467-3.528-5.878-.47-4.7-2.35-5.643-2.352-4.7-2.117-6.112-2.821-3.762-3.763-7.288-3.526-13.4-3.526-13.4,5.878-2.586,6.115-4.466-1.881-7.055-2.588-8.229-1.645-.235-2.113-3.526-9.641-39.029-10.109-39.968-.707-5.642-.707-5.642l-2.351-4.231a45.761,45.761,0,0,1-.705-5.174,34.8,34.8,0,0,0-.47-4c-.235-2.113.47-3.526.7-5.171s-1.175-1.645.235-3.761,2.351-3.29,2.351-5.406-2.351-19.045-3.526-21.63c0,0,9.167-.236,11.519-3.528,0,0,1.177,2.117,2.587,4.94s2.585,4.466,2.585,6.816a14.211,14.211,0,0,0,2.588,7.054c1.175,1.643,1.408.94,1.408,3.055s.472,3.529,1.648,4,1.645.706,1.88,1.882,1.412,2.116,1.882,3.058.235,1.408,1.175,3.524,2.061.94,1.973,3.058-.615,4,0,6.581,4.14,12.461,6.255,19.513c0,0-.938,6.583-.938,7.994s2.585,5.173,3.291,5.643-3.291,2.586-2.821,7.759c0,0,1.175,6.818,4,18.807a97.419,97.419,0,0,1,2.821,15.987c.47,7.29-1.647,16.928,7.053,26.1,0,0,12.7,8.229,15.517,1.412,0,0,11.284-9.641,5.641-29.623,0,0-6.583-15.282-7.758-18.573s-5.643-12.461-5.876-14.106a6.137,6.137,0,0,0,4.465-4c.94-3.291,2.823-7.757,1.882-11.519a50.8,50.8,0,0,1-.942-12.93c.237-2.821-.7-26.332-1.175-28.213s-4.7-7.76-4.936-8.7a20.6,20.6,0,0,1-.941-5.408c0-2.351-1.645-1.88-1.88-3.762s.941-4.232.707-6.112-1.882-1.647-1.882-5.173-.707-13.166-.472-16.222c0,0,33.856-11.284,43.965-17.16s32.916-19.28,36.205-25.393,1.412-4.7,1.412-4.7m-85.4-97.861c-3.528.881-3.351,9.169-3.351,9.169-1.763.528-4.938-2.117-4.938-2.117.176-5.641-.881-15.518-1.056-18.163s-.883-5.641-1.236-9.343-.7-3-2.468-6.172-1.412-1.94-2.292-5.465,1.763-.882,2.292,0,3,3.173,4.76,5.112,1.234,4.055,1.763,6.348,1.589,2.823,4.584,5.818,1.941,2.294,1.941,3.879-.882,5.642,0,6.877,3.526,3.173,0,4.056" transform="translate(0 -0.001)"/>
  </g>
</svg>
