<svg xmlns="http://www.w3.org/2000/svg" width="390.103" height="631.283" viewBox="0 0 390.103 631.283">
  <g id="Laag_2" data-name="Laag 2" transform="translate(-0.004 0.013)">
    <g id="Layer_1" data-name="Layer 1" transform="translate(0.004 -0.013)">
      <path id="Path_33" data-name="Path 33" d="M174.077,97.927l-.383-.117A45.1,45.1,0,0,1,170.964,94v-.35a36.34,36.34,0,0,0,3.329,4.362Zm153.154,26.136c3.329.549,7.475,4.661,8.457,5.377s13.318,2.247,15.482,2.43,5.727,5.227,7.458,6.343,3.679-.766,2.98-3a11.47,11.47,0,0,0-3.329-4.312c1.665-1.931,4.278-5.227,4.461-6.309s-1.115-3.712-2.3-5.793c7.158-.2,23.306-1.215,26.069-1.848s5.51-3.2,1.781-3.329c-2.314,0-11.37.366-16.647.266s-11.037-1.1-12.5-1.015-20.393-.7-23.306-.666c-.966,0-2.7.117-4.794.266a10.471,10.471,0,0,0-3.113-.449c-9.672,0-103.962-3.563-107.657-3.329s-24.172-4.478-37.256-8.324c-4.994-5.294-7.941-8.44-9.555-15.5C171.114,74.688,170.132,63.651,167.5,54a120.671,120.671,0,0,0-4.994-20.176,93.68,93.68,0,0,1,3.9,9.705c-2.93-12.569-8.823-29.549-24.105-31.13C129.929-5.868,75.376-.291,74.544,6a19.977,19.977,0,0,0,1.415,10.221c-3.679,4.711-5.926,10.138-5.643,14.733C70.5,33.9,72.2,37.165,71.7,41.027c-.549,4.245-8.041,10.6-8.007,13.551s3.712,2.98,4.478,4.228-.9,2.98-.816,4.079,1.931,3.546,2.963,3.529a2.6,2.6,0,0,0-1.382,3.1c.4,1.931,2.347,2.3,2.6,3.846s.716,7.042,3.03,8.024c4.079,1.665,15.2-.383,17.163,1,1.265.866.1,6.343-.666,11.5-9.555,0-22.341-.466-28.866,1.065s-22.74,30.781-28.716,37.673-29.116,30.131-32.2,34.393.366,30.414.5,37.573c1.515,2.7,4.994,5.161,10.072,6.659,1.015,16.547.1,20.459,1.864,23.872s7.508,6.309,13.8,9.705c-1.182,7.741-5.527,26.269-7.092,36.174s5.111,130.5,4.478,141.335-9.139,42.1-9.705,58.265,4.994,83.436,3.746,96.221S3.427,631.27,7.739,631.27h28.3c3.812,0,.866-15.482,1.115-21.824s2.88-22.574,2.614-28.151-2.847-14.416-1.5-25.354,2.164-23.905,3.729-34.31,7.574-22.224,9.705-33.944-.716-50.358.749-54.819S60.66,375.686,60.66,381.4h44.048c1.831,10.738,11.936,42.284,14.167,58.1s2.247,43.865,3.746,55.935,8.14,38.422,9.689,49.942-1.065,51.973-2.43,54.636-4.994,4.312-6.343,9.322-3.329,20.326,1.315,20.326h26.1c4.129,0,2.414-10.9,2.314-17.9a16.947,16.947,0,0,1,1.232-6.043,208.357,208.357,0,0,1,.549,25.437h3.18a165.823,165.823,0,0,1,1.665-36.141,20.781,20.781,0,0,0,1.548-3.329c1.265-4.062-6.326-20.343-7.275-27.784s1.665-34.709.566-39.337,4.328-35.692,3.729-46.246-9.888-39.071-10.488-52.139S144.911,307.066,143.5,289.67s-18.312-50.757-20.876-56.684-2.081-26.336,1.482-34.31,35.825-54.536,43.283-64.924c13.318,1.665,62.261,11.353,91.743,11.936,6.076-2.231,8.324-15.815,11.936-17.163,4.794-1.348,44.232-4.079,56.118-4.445M167.369,64.15a68.62,68.62,0,0,0,1.781,13.318c-.433-4.478-1.015-8.923-1.781-13.318m4.695,24.888a90.955,90.955,0,0,0,3.912,9.456l1.781.549c-2.68-3.329-3.429-6.659-5.693-9.988m-40.935-4.478a43.285,43.285,0,0,1,1.865-5.777c.466-7.841,3.13-13.634,5.444-19.294a68.037,68.037,0,0,1-8.124,9.988,74.647,74.647,0,0,0,.816,14.982m51.007,15.748a77.087,77.087,0,0,1-6.176-6.259,40.255,40.255,0,0,0,2.8,5.277l3.329.982M43.913,205.1a426.577,426.577,0,0,0,6.859-46.8c-11.653,7.025-18.429,13.717-19.344,17.33-.782,3.08-.749,27.651.183,29.832-.166,0-4.828,3.329-4.844,3.329-.25,3.529-.716,10.6.732,11s12.569-8.69,16.414-14.733" transform="translate(-0.004 0.013)" fill-rule="evenodd"/>
    </g>
  </g>
</svg>
