<svg xmlns="http://www.w3.org/2000/svg" width="36" height="36" viewBox="0 0 36 36">
  <path id="Icon_awesome-linkedin" data-name="Icon awesome-linkedin" d="M33.429,2.25H2.563A2.583,2.583,0,0,0,0,4.846V35.654a2.583,2.583,0,0,0,2.563,2.6H33.429A2.589,2.589,0,0,0,36,35.654V4.846A2.589,2.589,0,0,0,33.429,2.25ZM10.88,33.107H5.545V15.927h5.344v17.18ZM8.213,13.58a3.094,3.094,0,1,1,3.094-3.094A3.1,3.1,0,0,1,8.213,13.58ZM30.881,33.107H25.546V24.75c0-1.993-.04-4.556-2.772-4.556-2.78,0-3.206,2.17-3.206,4.412v8.5H14.231V15.927H19.35v2.346h.072A5.62,5.62,0,0,1,24.477,15.5c5.4,0,6.4,3.56,6.4,8.188Z" transform="translate(0 -2.25)" fill="#fff"/>
</svg>
