<svg xmlns="http://www.w3.org/2000/svg" width="113.348" height="243.6" viewBox="0 0 113.348 243.6">
  <g id="Group_17" data-name="Group 17" transform="translate(-665.257 -3883.209)">
    <path id="Path_54" data-name="Path 54" d="M906.846,3972.116a42.685,42.685,0,0,0-10.144-8.106s-10.485-5.344-10.828-6.141-1.368-3.419-2.963-6.611-5.47-8.091-5.7-9.688-1.368-3.531-.228-4.786a19.023,19.023,0,0,0,2.507-3.191c.684-1.139.8-4.558,1.254-7.978s1.482-4.672.456-8.661,0-3.078-1.026-3.99a5.1,5.1,0,0,1-1.6-2.393c-.227-.684-.8-2.052-.8-2.052a21.026,21.026,0,0,0-2.279-3.761A25.045,25.045,0,0,0,873,3902.25c-.456-.343-.342-.683-1.482-2.051s-2.28-2.279-3.647-3.875-.912-1.482-2.165-2.166-1.938-.912-2.052-1.368-2.279-2.849-2.507-3.647.341-1.71-.684-3.533a32.961,32.961,0,0,0-2.052-3.533c-.683-.911-1.252-1.709-1.937-1.709s.912-.684-3.533-1.026a52.265,52.265,0,0,0-6.382-.342,40.585,40.585,0,0,1-4.56-.228l-.456-1.253a28.694,28.694,0,0,0-5.357-3.306,12.094,12.094,0,0,1-.227-4.445s.113-2.962.341-4.673c0,0,7.751-7.466,7.181-14.361,0,0,.342-5.584-7.807-4.5,0,0-4.445.684-6.041,1.14l-7.009-5.13s-3.989-.8-11.626,5.414c0,0-3.931,5.357-1.652,10.6,0,0-6.724,7.009-5.642,14.133,0,0,2.109,6.895,12.138,4.387a4.347,4.347,0,0,1-.4,2.222c-.57,1.652-.969,2.167-.969,2.906a20.49,20.49,0,0,1-.171,2.45,58.605,58.605,0,0,0-8.092,4.9s-6.839,4.276-9.346,5.644c0,0-1.767.17-1.709,2.678s.283,3.533,0,5.128-.341,9.8-.341,11.341,0,6.325.341,7.067.116,3.247-.341,6.5-.8,6.325-.8,6.723-.855,3.876.57,5.7c0,0-.057,3.135-.171,4.16s-.623,5.128-.653,6.041a69.739,69.739,0,0,0,1.166,9.744,11.213,11.213,0,0,1,.74,3.478c.114,1.537-.284,8.262-.284,10.428s.056,3.247.056,3.819a9.22,9.22,0,0,0,.171,1.424,2.257,2.257,0,0,0,.228,2.336,17.3,17.3,0,0,0,2.051,2.393s2.736,2.621,4.388,2.679c0,0,.855,1.652,2.109,1.766s1.424-1.481,1.368-2.621a22.085,22.085,0,0,1,.4-5.015c.285-.627,2.28-1.2,2.564-2.678,0,0-.284-6.326.229-7.75s.227-3.362.341-4.273.285-3.306.343-3.989-.684-13.164-.57-14.075.457-3.818.513-4.616-.114-5.014.855-3.134a12.261,12.261,0,0,1,1.255,4.331,10.979,10.979,0,0,1,0,2.735c-.115.741-1.083,4.273-1.255,5.983a20.733,20.733,0,0,0-.171,4.674c.171,1.994.228,8.149.457,10.372s-.058,5.584.057,6.382.456,2.906.8,5.7,3.533,12.879,5.813,18.236c0,0,2.278,9,3.533,14.019,0,0,1.254,3.646,2.394,4.1s1.026,0,1.026,0l-.114-1.482s.911-1.823,1.595-1.482.456,2.23.8,3.167a9.42,9.42,0,0,1,.911,2.647c0,.8-.8.911-.911,1.482a9.074,9.074,0,0,0-.456,2.621c0,1.367.456,3.077,2.279,6.383s1.368,3.875,1.938,6.269.8,5.812,1.368,6.723,1.938,5.586,2.963,7.636a31.86,31.86,0,0,1,2.166,5.7,1.35,1.35,0,0,1-.571,1.482,13.019,13.019,0,0,1,1.369,3.419c0,.912.911.912,2.051.57a6.735,6.735,0,0,1,1.709-.342s2.736,5.927,2.85,9.118a9.574,9.574,0,0,1-1.368,4.1,44.7,44.7,0,0,1-3.647,6.04c-.684.685-2.508.8-2.508,2.394a3.709,3.709,0,0,0,.57,2.279s7.636.911,10.485,0,3.875-1.139,4.217-1.824,3.762-.569,4.217-1.366a7.271,7.271,0,0,0,0-4.673c-.57-1.14-1.482-2.166-1.71-2.85s-.228-2.279-1.139-2.736-1.14-2.279-1.026-2.963-1.368-1.824-1.824-3.533-1.709-6.5-1.709-6.5,2.849-1.253,2.964-2.165a10.917,10.917,0,0,0-1.255-3.989c-.341-.569-.8-.114-1.024-1.71s-4.674-18.92-4.9-19.376a14.656,14.656,0,0,1-.343-2.735l-1.14-2.051a22.191,22.191,0,0,1-.342-2.509,16.889,16.889,0,0,0-.228-1.937,8.345,8.345,0,0,1,.342-2.507c.114-.8-.57-.8.114-1.823a4.437,4.437,0,0,0,1.14-2.621c0-1.026-1.14-9.233-1.709-10.486,0,0,4.444-.114,5.584-1.71,0,0,.571,1.026,1.254,2.395s1.253,2.165,1.253,3.3a6.889,6.889,0,0,0,1.255,3.42c.569.8.683.456.683,1.481s.229,1.711.8,1.938.8.342.911.912.684,1.025.912,1.482.114.682.57,1.708,1,.455.956,1.483a9.91,9.91,0,0,0,0,3.19c.3,1.254,2.007,6.041,3.032,9.459,0,0-.455,3.192-.455,3.875a6.443,6.443,0,0,0,1.6,2.736c.342.228-1.6,1.253-1.368,3.761,0,0,.57,3.305,1.937,9.117a47.22,47.22,0,0,1,1.368,7.75c.228,3.534-.8,8.207,3.419,12.651,0,0,6.155,3.989,7.522.684,0,0,5.47-4.674,2.735-14.36,0,0-3.191-7.409-3.761-9s-2.736-6.041-2.849-6.838a2.975,2.975,0,0,0,2.164-1.939c.456-1.6,1.369-3.76.912-5.584a24.627,24.627,0,0,1-.457-6.268c.115-1.367-.341-12.766-.57-13.677s-2.279-3.762-2.393-4.217a9.983,9.983,0,0,1-.456-2.621c0-1.14-.8-.911-.911-1.823s.456-2.052.343-2.963-.912-.8-.912-2.508-.343-6.383-.229-7.865c0,0,16.413-5.47,21.313-8.319s15.957-9.347,17.552-12.31.684-2.279.684-2.279m-41.4-47.441c-1.71.427-1.624,4.445-1.624,4.445-.855.256-2.394-1.026-2.394-1.026.085-2.735-.427-7.523-.512-8.8s-.428-2.734-.6-4.53-.342-1.454-1.2-2.992a6.066,6.066,0,0,1-1.111-2.65c-.427-1.709.855-.427,1.111,0s1.453,1.538,2.308,2.478.6,1.966.855,3.077.77,1.369,2.222,2.821.941,1.112.941,1.88-.428,2.736,0,3.334,1.71,1.539,0,1.967" transform="translate(-128.5 41)"/>
  </g>
</svg>
