<svg xmlns="http://www.w3.org/2000/svg" width="305.72" height="657.031" viewBox="0 0 305.72 657.031">
  <g id="Group_52" data-name="Group 52" transform="translate(-793.757 -3842.209)">
    <path id="Path_54" data-name="Path 54" d="M1098.778,4192.588a115.144,115.144,0,0,0-27.36-21.862s-28.28-14.412-29.2-16.562-3.689-9.221-7.99-17.832-14.755-21.822-15.371-26.13-3.689-9.525-.614-12.91a51.342,51.342,0,0,0,6.762-8.606c1.845-3.073,2.153-12.294,3.382-21.519s4-12.6,1.231-23.361,0-8.3-2.768-10.761a13.769,13.769,0,0,1-4.306-6.454c-.612-1.846-2.151-5.535-2.151-5.535s-3.38-7.071-6.147-10.144a67.532,67.532,0,0,0-6.764-6.764c-1.229-.922-.922-1.842-4-5.532s-6.15-6.148-9.837-10.452-2.46-4-5.84-5.842-5.228-2.461-5.535-3.689-6.147-7.684-6.761-9.837.919-4.612-1.846-9.53-3.687-7.067-5.535-9.528-3.378-4.61-5.226-4.61,2.46-1.846-9.529-2.768-9.837-.922-17.213-.922a109.373,109.373,0,0,1-12.3-.616l-1.229-3.379s-9.224-7.071-14.449-8.915a32.613,32.613,0,0,1-.612-11.989s.305-7.99.92-12.6c0,0,20.906-20.137,19.367-38.732,0,0,.922-15.062-21.056-12.143,0,0-11.99,1.843-16.293,3.075L871.6,3842.3s-10.76-2.154-31.357,14.6c0,0-10.6,14.449-4.456,28.588,0,0-18.136,18.906-15.216,38.121,0,0,5.687,18.6,32.738,11.834,0,0,.46,1.536-1.074,5.994s-2.613,5.842-2.613,7.838a55.3,55.3,0,0,1-.462,6.609,158,158,0,0,0-21.826,13.216s-18.446,11.531-25.207,15.221c0,0-4.766.458-4.611,7.224s.763,9.529,0,13.831-.919,26.438-.919,30.588-.009,17.061.919,19.061.312,8.76-.919,17.524-2.151,17.06-2.151,18.134-2.305,10.453,1.536,15.371c0,0-.153,8.455-.46,11.22s-1.68,13.832-1.762,16.293,1.762,21.979,3.145,26.281,1.689,5.228,2,9.379-.765,22.285-.765,28.127.151,8.758.151,10.3a24.874,24.874,0,0,0,.462,3.84,6.089,6.089,0,0,0,.615,6.3,46.667,46.667,0,0,0,5.533,6.454s7.378,7.071,11.834,7.226c0,0,2.308,4.457,5.69,4.763s3.842-4,3.689-7.069.307-11.837,1.074-13.526,6.149-3.227,6.916-7.225c0,0-.767-17.062.617-20.9s.613-9.067.92-11.528.769-8.916.924-10.757-1.844-35.506-1.538-37.965,1.231-10.3,1.384-12.452-.307-13.522,2.306-8.453a33.075,33.075,0,0,1,3.384,11.682,29.594,29.594,0,0,1,0,7.377c-.309,2-2.922,11.526-3.384,16.138s-.922,7.224-.46,12.605.615,21.98,1.231,27.976-.157,15.061.153,17.214,1.229,7.838,2.151,15.369,9.529,34.736,15.678,49.186c0,0,6.145,24.286,9.529,37.812,0,0,3.382,9.836,6.457,11.066s2.767,0,2.767,0l-.307-4s2.458-4.917,4.3-4,1.231,6.013,2.153,8.54,2.458,4.987,2.458,7.14-2.153,2.458-2.458,4-1.229,3.38-1.229,7.069,1.229,8.3,6.147,17.217,3.689,10.45,5.226,16.907,2.153,15.676,3.689,18.135,5.227,15.064,7.993,20.6a85.942,85.942,0,0,1,5.842,15.372,3.641,3.641,0,0,1-1.54,4s3.691,6.763,3.691,9.221,2.458,2.46,5.533,1.539a18.164,18.164,0,0,1,4.611-.923s7.378,15.987,7.686,24.6c0,0,0,4.3-3.689,11.066s-8,14.449-9.836,16.29-6.764,2.153-6.764,6.458,1.538,6.147,1.538,6.147,20.6,2.458,28.28,0,10.451-3.073,11.375-4.919,10.146-1.535,11.375-3.687,1.536-9.528,0-12.6-4-5.841-4.613-7.685-.615-6.147-3.073-7.38-3.075-6.146-2.768-7.992-3.689-4.919-4.92-9.529-4.611-17.522-4.611-17.522,7.685-3.382,8-5.84-2.46-9.225-3.384-10.76-2.151-.308-2.763-4.611-12.606-51.031-13.218-52.26-.924-7.377-.924-7.377l-3.075-5.532a59.836,59.836,0,0,1-.922-6.766,45.484,45.484,0,0,0-.615-5.226c-.307-2.762.615-4.61.922-6.761s-1.536-2.151.307-4.918,3.075-4.3,3.075-7.068-3.075-24.9-4.611-28.283c0,0,11.987-.308,15.062-4.614,0,0,1.539,2.768,3.382,6.459s3.38,5.84,3.38,8.913,1.846,7.07,3.384,9.223,1.841,1.229,1.841,3.994.617,4.614,2.155,5.226,2.151.924,2.458,2.46,1.846,2.767,2.46,4,.307,1.842,1.536,4.609,2.695,1.229,2.58,4-.8,5.224,0,8.6,5.413,16.294,8.178,25.515c0,0-1.227,8.608-1.227,10.452s3.38,6.764,4.3,7.378-4.3,3.38-3.689,10.146c0,0,1.536,8.914,5.226,24.589a127.416,127.416,0,0,1,3.689,20.9c.614,9.532-2.153,22.135,9.221,34.123,0,0,16.6,10.76,20.289,1.846,0,0,14.754-12.606,7.376-38.734,0,0-8.607-19.982-10.143-24.285s-7.378-16.294-7.683-18.443c0,0,4.609-.925,5.838-5.229s3.691-10.143,2.46-15.061a66.434,66.434,0,0,1-1.231-16.907c.309-3.688-.92-34.431-1.536-36.891s-6.147-10.146-6.454-11.372a26.937,26.937,0,0,1-1.231-7.071c0-3.074-2.151-2.458-2.458-4.918s1.231-5.534.924-7.992-2.46-2.154-2.46-6.764-.924-17.215-.617-21.21c0,0,44.268-14.755,57.486-22.438s43.039-25.21,47.34-33.2,1.846-6.148,1.846-6.148M987.113,4064.631c-4.613,1.152-4.381,11.989-4.381,11.989-2.306.69-6.457-2.767-6.457-2.767.23-7.376-1.152-20.291-1.381-23.749s-1.154-7.376-1.616-12.217-.922-3.922-3.227-8.07-1.846-2.538-3-7.146,2.306-1.154,3,0,3.919,4.148,6.224,6.684,1.614,5.3,2.306,8.3,2.078,3.692,5.995,7.608,2.537,3,2.537,5.072-1.154,7.377,0,8.993,4.611,4.149,0,5.3" transform="translate(0 -0.001)" fill="#fff"/>
  </g>
</svg>
